<?xml version="1.0" encoding="utf-8"?>
<!-- Generator: Adobe Illustrator 25.0.1, SVG Export Plug-In . SVG Version: 6.00 Build 0)  -->
<svg version="1.1" id="Слой_2" xmlns="http://www.w3.org/2000/svg" xmlns:xlink="http://www.w3.org/1999/xlink" x="0px" y="0px"
	 viewBox="0 0 450.7 450.7" style="enable-background:new 0 0 450.7 450.7;" xml:space="preserve">
<style type="text/css">
	.st0{fill:#FFFFFF;}
</style>
<path class="st0" d="M403.5,316.3c-8.9-0.9-40.2-13.6-31.3-51.1c5.6,1,9.6,1.9,9.6,1.9l16.5-19.1L341.4,56.3l-8,101.7L290,11
	l-6.6,120.5c0,0-73-88.5-186.6,8.1c11.6-5,32.7-7.4,59.2,5.4C90,157.1,16.5,200.4,45,336.6c0,0,3.5-36.2,31.9-49.2
	c0,65,56.3,155.8,164.5,152.1c-135.7-37.9-137.8-205.9-30.6-219.1c14.7-1.2,21.9,0.6,28.6,2.9c-14.5,0-38.1-0.7-55.5,28.2
	c-5.4-0.6-13.8-1.9-13.8-1.9l12,7.5c0,0-10.2,30.6,1.9,54.7c-23.4,4.1-30.2,5.3-30.2,5.3l49.9,8.6c0,0,9.9,19.7,21,30.8
	c-12.1,7.4-33.9,20-33.9,20l54.3-9.4c0,0,11.7,35.6,47.1,61.7c5.2-2.1,18.5-7.5,25.9-13.2c-14.6-9-41.4-28.1-63.1-76.1
	c-3.2,2.1-14.1,8-14.1,8s-17-14.7-27.9-40.8c-5.5,1-16.6,3.4-16.6,3.4s-12-27.9-0.9-56l-2.5-0.6c0,0,15.9-29.2,53.9-25.9
	c2.9,0-2.8,17.1-27,16.5c0,0-1.6,15.1,26.1,18.7c0,2.3-10.9,11.5-25.6,10c11.2,40.4,72.8,21.9,91.9,55.6c18.7,33-1.8,37.6,22.2,74.8
	c3.5-11,16.5-32,47.7-27.9c0-3.4,1.8-28.2,27.2-36.1C408.5,337.1,401.9,325.2,403.5,316.3z M342.3,269.3c-2.2,0-12.1-2.7-12.1-9.9
	c-0.6-12.7,7.7-11.2,6.6-32.6c13.5,7,11.2,38.2,18.2,55.2C346.4,279.3,342.3,269.3,342.3,269.3z"/>
</svg>
